<svg width="111" height="42" viewBox="0 0 111 42" fill="none" xmlns="http://www.w3.org/2000/svg">
<g clip-path="url(#clip0)">
<path d="M59.2298 11.8113V30.8348H57.8462V21.7851H45.1498V30.8348H43.767V11.8113H45.1506V20.5629H57.847V11.8113H59.2298Z" fill="#0277BD"/>
<path d="M62.0323 12.8851C61.9267 12.7862 61.843 12.6661 61.7869 12.5327C61.7308 12.3992 61.7035 12.2554 61.7067 12.1106C61.7066 11.9643 61.7353 11.8193 61.7912 11.6841C61.8471 11.5489 61.929 11.426 62.0323 11.3225C62.1356 11.219 62.2583 11.137 62.3933 11.081C62.5282 11.0251 62.6729 10.9963 62.819 10.9964C62.9642 10.9937 63.1086 11.02 63.2436 11.0736C63.3786 11.1272 63.5016 11.2072 63.6056 11.3088C63.7112 11.4078 63.7947 11.5279 63.8508 11.6614C63.9069 11.7948 63.9343 11.9387 63.9311 12.0835C63.9312 12.2298 63.9025 12.3747 63.8467 12.5099C63.7908 12.6452 63.7089 12.768 63.6056 12.8715C63.5023 12.975 63.3797 13.0571 63.2447 13.113C63.1098 13.169 62.9651 13.1978 62.819 13.1977C62.6737 13.2005 62.5293 13.1744 62.3943 13.1207C62.2592 13.067 62.1361 12.9869 62.0323 12.8851ZM62.1408 16.648H63.4973V30.8348H62.1408V16.648Z" fill="#0277BD"/>
<path d="M79.8885 16.6479L73.4857 30.8348H72.1021L65.7266 16.6479H67.1644L72.8073 29.3394L78.5046 16.6479H79.8885Z" fill="#0277BD"/>
<path d="M93.7835 24.0679H81.6026C81.6197 25.1077 81.9097 26.1247 82.4436 27.0166C82.9562 27.8662 83.6933 28.5575 84.5733 29.014C85.5084 29.4947 86.5472 29.7374 87.5981 29.7206C88.4779 29.7291 89.3502 29.5581 90.1619 29.2179C90.9306 28.8962 91.6067 28.387 92.1287 27.7367L92.9154 28.6335C92.2914 29.3832 91.4956 29.9706 90.596 30.3456C89.5077 30.7897 88.3358 30.9906 87.1621 30.9343C85.9883 30.878 84.8409 30.5658 83.8 30.0195C82.7175 29.4241 81.8207 28.5399 81.2093 27.4649C80.5727 26.3292 80.2496 25.0441 80.2732 23.7418C80.2527 22.4509 80.5558 21.1754 81.1549 20.0323C81.7123 18.9682 82.5528 18.0793 83.5832 17.464C84.6385 16.8608 85.8321 16.5424 87.0471 16.54C88.2621 16.5376 89.4569 16.8513 90.5146 17.4503C91.5375 18.0588 92.373 18.938 92.9293 19.9914C93.5293 21.1293 93.8325 22.4007 93.8109 23.6874L93.7835 24.0679ZM84.3697 18.4017C83.5759 18.8436 82.9154 19.4912 82.4572 20.2767C81.9697 21.1088 81.6861 22.0448 81.6297 23.008H92.4813C92.4433 22.0478 92.1632 21.1129 91.6673 20.2904C91.1901 19.4964 90.5127 18.8423 89.7031 18.3939C88.8935 17.9455 87.9803 17.7185 87.0553 17.7358C86.1177 17.7215 85.1925 17.951 84.3697 18.4017Z" fill="#0277BD"/>
<path d="M109.165 30.8348L102.627 22.0297L96.1165 30.8348H94.4887L101.786 21.0241L95.004 11.8113H96.6317L102.682 19.9914L108.731 11.8113H110.278L103.495 20.997L110.793 30.8348H109.165Z" fill="#004C8C"/>
<path d="M0 31.5475L18.2125 21.095V0L0 10.4525V31.5475Z" fill="#58A5F0"/>
<path d="M36.2353 10.4525L18.2125 0V21.095L36.2353 31.5475V10.4525Z" fill="#0277BD"/>
<path d="M0 31.5475L18.2125 21.095L36.2353 31.5475L18.2125 42L0 31.5475Z" fill="#004C8C"/>
</g>
<defs>
<clipPath id="clip0">
<rect width="110.793" height="42" fill="white"/>
</clipPath>
</defs>
</svg>
